{
  "accessors": [
    {
      "bufferView": 2,
      "componentType": 5126,
      "count": 9651,
      "max": [
        250.0,
        240.92881774902344,
        378.95147705078125
      ],
      "min": [
        -237.95343017578125,
        -250.0,
        11.0
      ],
      "type": "VEC3"
    },
    {
      "bufferView": 2,
      "byteOffset": 115812,
      "componentType": 5126,
      "count": 9651,
      "max": [
        1.0,
        1.0,
        1.0
      ],
      "min": [
        -1.0,
        -1.0,
        -1.0
      ],
      "type": "VEC3"
    },
    {
      "bufferView": 1,
      "componentType": 5126,
      "count": 9651,
      "max": [
        0.9558789730072021,
        0.8509560227394104
      ],
      "min": [
        0.048062000423669815,
        0.05582600086927414
      ],
      "type": "VEC2"
    },
    {
      "bufferView": 0,
      "componentType": 5125,
      "count": 16479,
      "type": "SCALAR"
    },
    {
      "bufferView": 2,
      "byteOffset": 231624,
      "componentType": 5126,
      "count": 9560,
      "max": [
        250.00001525878906,
        250.0,
        400.51373291015625
      ],
      "min": [
        -250.0,
        -250.0,
        0.0
      ],
      "type": "VEC3"
    },
    {
      "bufferView": 2,
      "byteOffset": 346344,
      "componentType": 5126,
      "count": 9560,
      "max": [
        1.0,
        1.0,
        1.0
      ],
      "min": [
        -1.0,
        -1.0,
        -1.0
      ],
      "type": "VEC3"
    },
    {
      "bufferView": 1,
      "byteOffset": 77208,
      "componentType": 5126,
      "count": 9560,
      "max": [
        0.9559109807014465,
        0.9850729703903198
      ],
      "min": [
        0.011211000382900238,
        0.057815998792648315
      ],
      "type": "VEC2"
    },
    {
      "bufferView": 0,
      "byteOffset": 65916,
      "componentType": 5125,
      "count": 14964,
      "type": "SCALAR"
    },
    {
      "bufferView": 2,
      "byteOffset": 461064,
      "componentType": 5126,
      "count": 5788,
      "max": [
        252.8636474609375,
        239.04530334472656,
        368.34552001953125
      ],
      "min": [
        -235.78143310546875,
        -247.71109008789063,
        39.51385498046875
      ],
      "type": "VEC3"
    },
    {
      "bufferView": 2,
      "byteOffset": 530520,
      "componentType": 5126,
      "count": 5788,
      "max": [
        1.0,
        1.0,
        1.0
      ],
      "min": [
        -1.0,
        -1.0,
        -1.0
      ],
      "type": "VEC3"
    },
    {
      "bufferView": 1,
      "byteOffset": 153688,
      "componentType": 5126,
      "count": 5788,
      "max": [
        0.9603970050811768,
        0.8591039776802063
      ],
      "min": [
        0.145687997341156,
        0.057815998792648315
      ],
      "type": "VEC2"
    },
    {
      "bufferView": 0,
      "byteOffset": 125772,
      "componentType": 5125,
      "count": 9270,
      "type": "SCALAR"
    }
  ],
  "asset": {
    "extras": {
      "author": "Mnostva (https://sketchfab.com/mnostva)",
      "license": "CC-BY-4.0 (http://creativecommons.org/licenses/by/4.0/)",
      "source": "https://sketchfab.com/3d-models/office-room-15-low-poly-3d-model-0402e7c67e0e4a6abc51a7269f59600a",
      "title": "Office Room 15 Low-poly 3D model"
    },
    "generator": "Sketchfab-12.74.0",
    "version": "2.0"
  },
  "bufferViews": [
    {
      "buffer": 0,
      "byteLength": 162852,
      "name": "floatBufferViews",
      "target": 34963
    },
    {
      "buffer": 0,
      "byteLength": 199992,
      "byteOffset": 162852,
      "byteStride": 8,
      "name": "floatBufferViews",
      "target": 34962
    },
    {
      "buffer": 0,
      "byteLength": 599976,
      "byteOffset": 362844,
      "byteStride": 12,
      "name": "floatBufferViews",
      "target": 34962
    }
  ],
  "buffers": [
    {
      "byteLength": 962820,
      "uri": "scene.bin"
    }
  ],
  "images": [
    {
      "uri": "textures/lambert2SG_baseColor.png"
    }
  ],
  "materials": [
    {
      "doubleSided": true,
      "name": "lambert2SG",
      "pbrMetallicRoughness": {
        "baseColorTexture": {
          "index": 0
        },
        "metallicFactor": 0.0,
        "roughnessFactor": 0.6
      }
    }
  ],
  "meshes": [
    {
      "name": "Object_0",
      "primitives": [
        {
          "attributes": {
            "NORMAL": 1,
            "POSITION": 0,
            "TEXCOORD_0": 2
          },
          "indices": 3,
          "material": 0,
          "mode": 4
        }
      ]
    },
    {
      "name": "Object_1",
      "primitives": [
        {
          "attributes": {
            "NORMAL": 5,
            "POSITION": 4,
            "TEXCOORD_0": 6
          },
          "indices": 7,
          "material": 0,
          "mode": 4
        }
      ]
    },
    {
      "name": "Object_2",
      "primitives": [
        {
          "attributes": {
            "NORMAL": 9,
            "POSITION": 8,
            "TEXCOORD_0": 10
          },
          "indices": 11,
          "material": 0,
          "mode": 4
        }
      ]
    }
  ],
  "nodes": [
    {
      "children": [
        1
      ],
      "matrix": [
        1.0,
        0.0,
        0.0,
        0.0,
        0.0,
        2.220446049250313e-16,
        -1.0,
        0.0,
        0.0,
        1.0,
        2.220446049250313e-16,
        0.0,
        0.0,
        0.0,
        0.0,
        1.0
      ],
      "name": "Sketchfab_model"
    },
    {
      "children": [
        2,
        3,
        4
      ],
      "name": "LP_Officeroom2.obj.cleaner.materialmerger.gles"
    },
    {
      "mesh": 0,
      "name": "Object_2"
    },
    {
      "mesh": 1,
      "name": "Object_3"
    },
    {
      "mesh": 2,
      "name": "Object_4"
    }
  ],
  "samplers": [
    {
      "magFilter": 9729,
      "minFilter": 9987,
      "wrapS": 10497,
      "wrapT": 10497
    }
  ],
  "scene": 0,
  "scenes": [
    {
      "name": "Sketchfab_Scene",
      "nodes": [
        0
      ]
    }
  ],
  "textures": [
    {
      "sampler": 0,
      "source": 0
    }
  ]
}
