<svg xmlns="http://www.w3.org/2000/svg" version="1.1" xmlns:xlink="http://www.w3.org/1999/xlink" xmlns:svgjs="http://svgjs.dev/svgjs" width="1000" height="623" viewBox="0 0 1000 623"><g transform="matrix(1,0,0,1,-0.6060606060606233,0.2522267206477409)"><svg viewBox="0 0 396 247" data-background-color="#ffffff" preserveAspectRatio="xMidYMid meet" height="623" width="1000" xmlns="http://www.w3.org/2000/svg" xmlns:xlink="http://www.w3.org/1999/xlink"><g id="tight-bounds" transform="matrix(1,0,0,1,0.2400000000000091,-0.09999999999999432)"><svg viewBox="0 0 395.52 247.2" height="247.2" width="395.52"><g><svg></svg></g><g><svg viewBox="0 0 395.52 247.2" height="247.2" width="395.52"><g transform="matrix(1,0,0,1,138.83458285714283,47.215199999999996)"><svg viewBox="0 0 117.85083428571428 152.7696" height="152.7696" width="117.85083428571428"><g><svg viewBox="0 0 117.85083428571428 152.7696" height="152.7696" width="117.85083428571428"><g><svg viewBox="0 0 117.85083428571428 152.7696" height="152.7696" width="117.85083428571428"><g><svg viewBox="0 0 117.85083428571428 152.7696" height="152.7696" width="117.85083428571428"><g><svg viewBox="0 0 117.85083428571428 152.7696" height="152.7696" width="117.85083428571428"><g><svg viewBox="0 0 117.85083428571428 152.7696" height="152.7696" width="117.85083428571428"><g transform="matrix(1,0,0,1,0,0)"><svg width="117.85083428571428" viewBox="4.349999904632568 -35 27 35" height="152.7696" data-palette-color="#50a060"><path d="M8.05 0L5.5 0Q4.95 0 4.65-0.33 4.35-0.65 4.35-1.15L4.35-1.15 4.35-33.8Q4.35-34.35 4.65-34.68 4.95-35 5.5-35L5.5-35 8.05-35Q8.6-35 8.93-34.68 9.25-34.35 9.25-33.8L9.25-33.8 9.25-20 26.45-20 26.45-33.8Q26.45-34.35 26.78-34.68 27.1-35 27.6-35L27.6-35 30.15-35Q30.7-35 31.03-34.68 31.35-34.35 31.35-33.8L31.35-33.8 31.35-1.15Q31.35-0.65 31.03-0.33 30.7 0 30.15 0L30.15 0 27.6 0Q27.1 0 26.78-0.33 26.45-0.65 26.45-1.15L26.45-1.15 26.45-15.5 9.25-15.5 9.25-1.15Q9.25-0.65 8.93-0.33 8.6 0 8.05 0L8.05 0Z" opacity="1" transform="matrix(1,0,0,1,0,0)" fill="#50a060" class="undefined-text-0" data-fill-palette-color="primary" id="text-0"></path></svg></g></svg></g></svg></g></svg></g></svg></g></svg></g></svg></g><path d="M321.136 41.215L321.136 0 73.936 0 73.936 247.2 321.136 247.2 321.136 205.985 307.359 205.985 307.359 233.423 87.713 233.423 87.713 13.777 307.359 13.777 307.359 41.215Z" fill="#50a060" stroke="transparent" data-fill-palette-color="primary"></path></svg></g><defs></defs></svg><rect width="395.52" height="247.2" fill="none" stroke="none" visibility="hidden"></rect></g></svg></g></svg>