<svg xmlns="http://www.w3.org/2000/svg" version="1.1" xmlns:xlink="http://www.w3.org/1999/xlink" xmlns:svgjs="http://svgjs.dev/svgjs" width="1000" height="623" viewBox="0 0 1000 623"><g transform="matrix(1,0,0,1,-0.6060606060606233,0.2522267206477409)"><svg viewBox="0 0 396 247" data-background-color="#ffffff" preserveAspectRatio="xMidYMid meet" height="623" width="1000" xmlns="http://www.w3.org/2000/svg" xmlns:xlink="http://www.w3.org/1999/xlink"><g id="tight-bounds" transform="matrix(1,0,0,1,0.2400000000000091,-0.09999999999999432)"><svg viewBox="0 0 395.52 247.2" height="247.2" width="395.52"><g><svg></svg></g><g><svg viewBox="0 0 395.52 247.2" height="247.2" width="395.52"><g transform="matrix(1,0,0,1,136.76128114285711,47.215199999999996)"><svg viewBox="0 0 121.99743771428572 152.7696" height="152.7696" width="121.99743771428572"><g><svg viewBox="0 0 121.99743771428572 152.7696" height="152.7696" width="121.99743771428572"><g><svg viewBox="0 0 121.99743771428572 152.7696" height="152.7696" width="121.99743771428572"><g><svg viewBox="0 0 121.99743771428572 152.7696" height="152.7696" width="121.99743771428572"><g id="textblocktransform"><svg viewBox="0 0 121.99743771428572 152.7696" height="152.7696" width="121.99743771428572" id="textblock"><g><svg viewBox="0 0 121.99743771428572 152.7696" height="152.7696" width="121.99743771428572"><g transform="matrix(1,0,0,1,0,0)"><svg width="121.99743771428572" viewBox="3.930000066757202 -35 27.94999885559082 35" height="152.7696" data-palette-color="#07498b"><path d="M9.38 0L3.93 0 3.93-35 9.38-35 9.38-20.8 26.43-20.8 26.43-35 31.88-35 31.88 0 26.43 0 26.43-15.68 9.38-15.68 9.38 0Z" opacity="1" transform="matrix(1,0,0,1,0,0)" fill="#07498b" class="undefined-text-0" data-fill-palette-color="primary" id="text-0"></path></svg></g></svg></g></svg></g></svg></g></svg></g></svg></g></svg></g><path d="M319.063 41.215L319.063 0 71.863 0 71.863 247.2 319.063 247.2 319.063 205.985 305.286 205.985 305.286 233.423 85.64 233.423 85.64 13.777 305.286 13.777 305.286 41.215Z" fill="#07498b" stroke="transparent" data-fill-palette-color="primary"></path></svg></g><defs></defs></svg><rect width="395.52" height="247.2" fill="none" stroke="none" visibility="hidden"></rect></g></svg></g></svg>